<svg width="28" height="27" viewBox="0 0 28 27" fill="none" xmlns="http://www.w3.org/2000/svg">
<g filter="url(#filter0_d_8_315)">
<path d="M13.3061 9.08066C13.6823 8.99158 14 9.3134 14 9.7V10.7C14 11.418 14.5821 12 15.3 12H16.3C16.6866 12 17.0085 12.3178 16.9194 12.6939C16.6062 14.0162 15.418 15 14 15C12.3432 15 11 13.6569 11 12C11 10.582 11.9838 9.39379 13.3061 9.08066Z" fill="#505050"/>
<path fill-rule="evenodd" clip-rule="evenodd" d="M14 5C9.11931 5 5.86625 8.65464 4.43688 10.6825C3.8739 11.4812 3.8739 12.5188 4.43688 13.3175C5.86626 15.3454 9.11931 19 14 19C18.8808 19 22.1338 15.3454 23.5632 13.3175C24.1262 12.5188 24.1262 11.4812 23.5632 10.6825C22.1338 8.65464 18.8808 5 14 5ZM7.70874 8.92728C6.76185 9.77768 6.02109 10.6914 5.49945 11.4315C5.25305 11.7811 5.25305 12.2189 5.49945 12.5685C6.02109 13.3086 6.76185 14.2223 7.70873 15.0727C7.25483 14.1451 7.00004 13.1023 7.00004 12C7.00004 10.8977 7.25483 9.85489 7.70874 8.92728ZM14 17.7C10.852 17.7 8.30004 15.148 8.30004 12C8.30004 8.85198 10.852 6.3 14 6.3C17.1481 6.3 19.7 8.85198 19.7 12C19.7 15.148 17.1481 17.7 14 17.7ZM20.2913 8.92728C21.2382 9.77768 21.979 10.6914 22.5006 11.4315C22.747 11.7811 22.747 12.2189 22.5006 12.5685C21.979 13.3086 21.2382 14.2223 20.2913 15.0727C20.7452 14.1451 21 13.1023 21 12C21 10.8977 20.7452 9.85489 20.2913 8.92728Z" fill="#505050"/>
</g>
<defs>
<filter id="filter0_d_8_315" x="-2" y="0" width="32" height="32" filterUnits="userSpaceOnUse" color-interpolation-filters="sRGB">
<feFlood flood-opacity="0" result="BackgroundImageFix"/>
<feColorMatrix in="SourceAlpha" type="matrix" values="0 0 0 0 0 0 0 0 0 0 0 0 0 0 0 0 0 0 127 0" result="hardAlpha"/>
<feOffset dy="4"/>
<feGaussianBlur stdDeviation="2"/>
<feComposite in2="hardAlpha" operator="out"/>
<feColorMatrix type="matrix" values="0 0 0 0 0 0 0 0 0 0 0 0 0 0 0 0 0 0 0.25 0"/>
<feBlend mode="normal" in2="BackgroundImageFix" result="effect1_dropShadow_8_315"/>
<feBlend mode="normal" in="SourceGraphic" in2="effect1_dropShadow_8_315" result="shape"/>
</filter>
</defs>
</svg>
