<svg width="28" height="29" viewBox="0 0 28 29" fill="none" xmlns="http://www.w3.org/2000/svg">
<g filter="url(#filter0_d_6_2152)">
<path fill-rule="evenodd" clip-rule="evenodd" d="M11.8277 3C9.16261 3 7.09129 5.32002 7.3922 7.96802L7.65424 10.274C7.89544 12.3966 9.69141 14 11.8277 14C13.9639 14 15.7599 12.3966 16.0011 10.274L16.2631 7.96803C16.564 5.32002 14.4927 3 11.8277 3ZM14.7094 10.1272L14.9714 7.82124C15.1847 5.94439 13.7166 4.3 11.8277 4.3C9.93872 4.3 8.47061 5.94439 8.68389 7.82124L8.94593 10.1272C9.11248 11.5928 10.3526 12.7 11.8277 12.7C13.3027 12.7 14.5428 11.5928 14.7094 10.1272Z" fill="#505050"/>
<path fill-rule="evenodd" clip-rule="evenodd" d="M9.97402 15C7.16182 15 4.72694 16.9532 4.11689 19.6984L4.01695 20.1481C3.91981 20.5853 4.25246 21 4.70028 21H18.955C19.4028 21 19.7355 20.5853 19.6384 20.1481L19.5384 19.6984C18.9284 16.9532 16.4935 15 13.6813 15H9.97402ZM18.198 19.7C17.6229 17.6982 15.7872 16.3 13.6813 16.3H9.97402C7.86815 16.3 6.03238 17.6982 5.45729 19.7H18.198Z" fill="#505050"/>
<path d="M16.1723 14C15.7922 14 15.6567 13.5382 15.8947 13.2419C15.9416 13.1835 15.9873 13.1241 16.0319 13.0638C16.196 12.8415 16.4473 12.7003 16.7187 12.6484C17.9438 12.4144 18.9086 11.4076 19.0541 10.1272L19.3161 7.82124C19.497 6.22931 18.4683 4.80463 16.9991 4.40876C16.6467 4.31378 16.3183 4.12676 16.0889 3.84284C16.0392 3.78144 15.9884 3.72105 15.9363 3.66173C15.7152 3.40992 15.8373 3 16.1723 3C18.8374 3 20.9087 5.32002 20.6078 7.96803L20.3458 10.274C20.1046 12.3966 18.3086 14 16.1723 14Z" fill="#505050"/>
<path d="M21.3143 21C20.9716 21 20.7274 20.6484 20.7236 20.3058C20.7202 19.9919 20.9448 19.7 21.2587 19.7H22.5427C22.1057 18.1788 20.9407 17.0062 19.4824 16.5308C19.2738 16.4628 19.0977 16.3644 18.9626 16.1914C18.5991 15.726 18.9161 15.0365 19.4889 15.1804C21.65 15.7232 23.382 17.4437 23.8831 19.6984L23.983 20.1481C24.0802 20.5853 23.7475 21 23.2997 21H21.3143Z" fill="#505050"/>
</g>
<defs>
<filter id="filter0_d_6_2152" x="-2" y="0" width="32" height="32" filterUnits="userSpaceOnUse" color-interpolation-filters="sRGB">
<feFlood flood-opacity="0" result="BackgroundImageFix"/>
<feColorMatrix in="SourceAlpha" type="matrix" values="0 0 0 0 0 0 0 0 0 0 0 0 0 0 0 0 0 0 127 0" result="hardAlpha"/>
<feOffset dy="4"/>
<feGaussianBlur stdDeviation="2"/>
<feComposite in2="hardAlpha" operator="out"/>
<feColorMatrix type="matrix" values="0 0 0 0 0 0 0 0 0 0 0 0 0 0 0 0 0 0 0.25 0"/>
<feBlend mode="normal" in2="BackgroundImageFix" result="effect1_dropShadow_6_2152"/>
<feBlend mode="normal" in="SourceGraphic" in2="effect1_dropShadow_6_2152" result="shape"/>
</filter>
</defs>
</svg>
